<svg id="visual" viewBox="0 0 900 600" width="900" height="600" xmlns="http://www.w3.org/2000/svg" xmlns:xlink="http://www.w3.org/1999/xlink" version="1.1"><rect x="0" y="0" width="900" height="600" fill="#001220"></rect><path d="M244 0L253 14.3C262 28.7 280 57.3 281 85.8C282 114.3 266 142.7 255.2 171.2C244.3 199.7 238.7 228.3 245.2 257C251.7 285.7 270.3 314.3 276.8 343C283.3 371.7 277.7 400.3 267.8 428.8C258 457.3 244 485.7 242.8 514.2C241.7 542.7 253.3 571.3 259.2 585.7L265 600L0 600L0 585.7C0 571.3 0 542.7 0 514.2C0 485.7 0 457.3 0 428.8C0 400.3 0 371.7 0 343C0 314.3 0 285.7 0 257C0 228.3 0 199.7 0 171.2C0 142.7 0 114.3 0 85.8C0 57.3 0 28.7 0 14.3L0 0Z" fill="#2487c7"></path><path d="M190 0L193.7 14.3C197.3 28.7 204.7 57.3 202.7 85.8C200.7 114.3 189.3 142.7 190.5 171.2C191.7 199.7 205.3 228.3 211.7 257C218 285.7 217 314.3 212 343C207 371.7 198 400.3 198.2 428.8C198.3 457.3 207.7 485.7 209.3 514.2C211 542.7 205 571.3 202 585.7L199 600L0 600L0 585.7C0 571.3 0 542.7 0 514.2C0 485.7 0 457.3 0 428.8C0 400.3 0 371.7 0 343C0 314.3 0 285.7 0 257C0 228.3 0 199.7 0 171.2C0 142.7 0 114.3 0 85.8C0 57.3 0 28.7 0 14.3L0 0Z" fill="#00b1e1"></path><path d="M127 0L131.3 14.3C135.7 28.7 144.3 57.3 147 85.8C149.7 114.3 146.3 142.7 145.3 171.2C144.3 199.7 145.7 228.3 144.2 257C142.7 285.7 138.3 314.3 141.8 343C145.3 371.7 156.7 400.3 163.2 428.8C169.7 457.3 171.3 485.7 170.3 514.2C169.3 542.7 165.7 571.3 163.8 585.7L162 600L0 600L0 585.7C0 571.3 0 542.7 0 514.2C0 485.7 0 457.3 0 428.8C0 400.3 0 371.7 0 343C0 314.3 0 285.7 0 257C0 228.3 0 199.7 0 171.2C0 142.7 0 114.3 0 85.8C0 57.3 0 28.7 0 14.3L0 0Z" fill="#00daec"></path><path d="M78 0L77.3 14.3C76.7 28.7 75.3 57.3 74.7 85.8C74 114.3 74 142.7 74.7 171.2C75.3 199.7 76.7 228.3 80.7 257C84.7 285.7 91.3 314.3 94.7 343C98 371.7 98 400.3 98.5 428.8C99 457.3 100 485.7 101.3 514.2C102.7 542.7 104.3 571.3 105.2 585.7L106 600L0 600L0 585.7C0 571.3 0 542.7 0 514.2C0 485.7 0 457.3 0 428.8C0 400.3 0 371.7 0 343C0 314.3 0 285.7 0 257C0 228.3 0 199.7 0 171.2C0 142.7 0 114.3 0 85.8C0 57.3 0 28.7 0 14.3L0 0Z" fill="#00ffd8"></path></svg>