<svg id="visual" viewBox="0 0 800 100" width="800" height="100" xmlns="http://www.w3.org/2000/svg" xmlns:xlink="http://www.w3.org/1999/xlink" version="1.1"><path d="M0 10L14.8 12.5C29.7 15 59.3 20 89 21.5C118.7 23 148.3 21 178 22.8C207.7 24.7 237.3 30.3 267 28.5C296.7 26.7 326.3 17.3 355.8 13.5C385.3 9.7 414.7 11.3 444.2 11.7C473.7 12 503.3 11 533 11C562.7 11 592.3 12 622 16.3C651.7 20.7 681.3 28.3 711 28.8C740.7 29.3 770.3 22.7 785.2 19.3L800 16L800 101L785.2 101C770.3 101 740.7 101 711 101C681.3 101 651.7 101 622 101C592.3 101 562.7 101 533 101C503.3 101 473.7 101 444.2 101C414.7 101 385.3 101 355.8 101C326.3 101 296.7 101 267 101C237.3 101 207.7 101 178 101C148.3 101 118.7 101 89 101C59.3 101 29.7 101 14.8 101L0 101Z" fill="#2487c7"></path><path d="M0 48L14.8 46.8C29.7 45.7 59.3 43.3 89 40.3C118.7 37.3 148.3 33.7 178 32.2C207.7 30.7 237.3 31.3 267 32.3C296.7 33.3 326.3 34.7 355.8 37.2C385.3 39.7 414.7 43.3 444.2 43C473.7 42.7 503.3 38.3 533 36.8C562.7 35.3 592.3 36.7 622 36.8C651.7 37 681.3 36 711 36.8C740.7 37.7 770.3 40.3 785.2 41.7L800 43L800 101L785.2 101C770.3 101 740.7 101 711 101C681.3 101 651.7 101 622 101C592.3 101 562.7 101 533 101C503.3 101 473.7 101 444.2 101C414.7 101 385.3 101 355.8 101C326.3 101 296.7 101 267 101C237.3 101 207.7 101 178 101C148.3 101 118.7 101 89 101C59.3 101 29.7 101 14.8 101L0 101Z" fill="#00a7db"></path><path d="M0 62L14.8 59.5C29.7 57 59.3 52 89 51.5C118.7 51 148.3 55 178 55.3C207.7 55.7 237.3 52.3 267 51.5C296.7 50.7 326.3 52.3 355.8 51.8C385.3 51.3 414.7 48.7 444.2 46.7C473.7 44.7 503.3 43.3 533 45.5C562.7 47.7 592.3 53.3 622 53.8C651.7 54.3 681.3 49.7 711 48.5C740.7 47.3 770.3 49.7 785.2 50.8L800 52L800 101L785.2 101C770.3 101 740.7 101 711 101C681.3 101 651.7 101 622 101C592.3 101 562.7 101 533 101C503.3 101 473.7 101 444.2 101C414.7 101 385.3 101 355.8 101C326.3 101 296.7 101 267 101C237.3 101 207.7 101 178 101C148.3 101 118.7 101 89 101C59.3 101 29.7 101 14.8 101L0 101Z" fill="#00c6e9"></path><path d="M0 73L14.8 73.3C29.7 73.7 59.3 74.3 89 73C118.7 71.7 148.3 68.3 178 67C207.7 65.7 237.3 66.3 267 67.5C296.7 68.7 326.3 70.3 355.8 70.2C385.3 70 414.7 68 444.2 68C473.7 68 503.3 70 533 71.3C562.7 72.7 592.3 73.3 622 72.8C651.7 72.3 681.3 70.7 711 70.8C740.7 71 770.3 73 785.2 74L800 75L800 101L785.2 101C770.3 101 740.7 101 711 101C681.3 101 651.7 101 622 101C592.3 101 562.7 101 533 101C503.3 101 473.7 101 444.2 101C414.7 101 385.3 101 355.8 101C326.3 101 296.7 101 267 101C237.3 101 207.7 101 178 101C148.3 101 118.7 101 89 101C59.3 101 29.7 101 14.8 101L0 101Z" fill="#00e4eb"></path><path d="M0 88L14.8 88.5C29.7 89 59.3 90 89 89.2C118.7 88.3 148.3 85.7 178 84.5C207.7 83.3 237.3 83.7 267 82.3C296.7 81 326.3 78 355.8 79.2C385.3 80.3 414.7 85.7 444.2 88C473.7 90.3 503.3 89.7 533 89C562.7 88.3 592.3 87.7 622 87.5C651.7 87.3 681.3 87.7 711 86.7C740.7 85.7 770.3 83.3 785.2 82.2L800 81L800 101L785.2 101C770.3 101 740.7 101 711 101C681.3 101 651.7 101 622 101C592.3 101 562.7 101 533 101C503.3 101 473.7 101 444.2 101C414.7 101 385.3 101 355.8 101C326.3 101 296.7 101 267 101C237.3 101 207.7 101 178 101C148.3 101 118.7 101 89 101C59.3 101 29.7 101 14.8 101L0 101Z" fill="#00ffd8"></path></svg>