<svg width="96" height="96" viewBox="0 0 96 96" fill="none" xmlns="http://www.w3.org/2000/svg">
<path d="M93.1274 17.8493C91.4943 16.4992 89.3937 15.8492 87.2834 16.0409C85.1731 16.2326 83.2241 17.2505 81.8609 18.8728L48.0004 59.4996L14.1395 18.8734C12.7802 17.2448 10.8296 16.2228 8.71681 16.0323C6.60402 15.8419 4.50209 16.4985 2.87343 17.8578C1.24478 19.2171 0.222801 21.1677 0.032329 23.2805C-0.158143 25.3933 0.498492 27.4952 1.85778 29.1238L41.8595 77.1254C42.6099 78.0253 43.549 78.7492 44.6101 79.246C45.6713 79.7429 46.8287 80.0004 48.0004 80.0004C49.1721 80.0004 50.3295 79.7429 51.3907 79.246C52.4518 78.7492 53.3909 78.0253 54.1413 77.1254L94.143 29.1232C95.5018 27.4929 96.1581 25.3899 95.9677 23.2761C95.7773 21.1623 94.7558 19.2105 93.1274 17.8493Z" fill="black"/>
</svg>
